<svg width="40" height="36" viewBox="0 0 40 36" fill="none" xmlns="http://www.w3.org/2000/svg">
<g clip-path="url(#clip0_979_63067)">
<path d="M39.7167 29.9092C39.7167 29.9092 39.7167 29.9128 39.7202 29.9163C39.7202 29.9163 39.6132 29.4375 39.3705 29.0194C39.1277 28.5977 33.9274 19.5601 31.1648 14.7501C28.6878 10.4368 26.3392 6.34861 24.5474 3.24317C23.3446 1.1562 21.5279 -0.05524 19.6862 0.00193728C18.4762 0.0412466 17.3697 0.616592 16.4988 1.62434C16.4988 1.62434 16.4988 1.62077 16.4988 1.61719C16.4988 1.61719 16.1383 1.94954 15.8956 2.37122C15.6529 2.7929 10.4347 11.8198 7.65785 16.6191C5.16653 20.9217 2.8037 25.0027 1.01195 28.1117C-0.190881 30.1987 -0.330081 32.3785 0.640749 33.9438C1.27607 34.973 2.33256 35.6448 3.63533 35.8949C3.63533 35.8949 3.63176 35.8949 3.62819 35.8949C3.62819 35.8949 4.09576 36.0415 4.58118 36.0415C5.06659 36.0415 15.4852 36.0522 21.0246 36.0593C25.993 36.0665 30.7044 36.0736 34.2879 36.0736C36.6935 36.0736 38.6495 35.1052 39.5204 33.4792C40.0914 32.4143 40.1486 31.1635 39.7131 29.9056L39.7167 29.9092ZM15.8992 3.08236C16.7701 1.36704 18.1478 0.359294 19.6969 0.309264C21.4208 0.255661 23.134 1.40993 24.2798 3.39326C26.0715 6.50227 28.4201 10.5904 30.8971 14.9002C32.1642 17.1086 33.467 19.3743 34.7447 21.5935C30.9792 15.7829 26.7604 9.69705 23.4374 5.00137C22.0847 3.08951 20.2251 2.0496 18.4583 2.22113C17.3412 2.32834 16.3668 2.89653 15.6244 3.84353C15.71 3.58266 15.8028 3.32894 15.8956 3.07879L15.8992 3.08236ZM15.2567 5.04068C15.9777 3.55765 17.1163 2.66425 18.4905 2.53203C20.143 2.37122 21.8991 3.36467 23.1876 5.18362C26.5783 9.97936 30.9042 16.2224 34.7269 22.1402C30.1083 15.8007 24.8473 9.64345 22.3274 6.77029C20.8462 5.07642 19.0437 4.26879 17.3876 4.55467C16.4239 4.72263 15.5994 5.2551 14.9748 6.08059C15.064 5.73038 15.1604 5.38374 15.2603 5.04425L15.2567 5.04068ZM14.7356 7.04188C15.3388 5.82687 16.2811 5.05497 17.4375 4.85485C18.9866 4.58684 20.6855 5.35873 22.0954 6.97041C24.6402 9.8793 29.9977 16.1474 34.6519 22.5584C29.2017 15.8972 22.77 9.94363 21.2138 8.52849C19.6362 7.09549 17.8908 6.49513 16.4275 6.87392C15.6494 7.07762 14.9855 7.54933 14.4787 8.24261C14.5607 7.83522 14.6464 7.43498 14.7392 7.03831L14.7356 7.04188ZM14.3038 9.14672C14.7892 8.11753 15.553 7.42426 16.5024 7.17411C17.8659 6.82032 19.5077 7.39567 21.0032 8.7572C22.5879 10.1938 29.2374 16.3546 34.7412 23.1587C29.7264 17.6733 23.4446 12.656 20.0966 10.2903C18.4262 9.11098 16.8165 8.71432 15.5673 9.17173C14.9748 9.38615 14.4858 9.78639 14.1003 10.3403C14.1646 9.94005 14.2324 9.53981 14.3038 9.14672ZM15.6708 9.46477C16.8236 9.04309 18.3334 9.42903 19.9182 10.5476C23.2875 12.924 29.63 17.9913 34.6448 23.5089C29.5372 18.5345 22.9234 14.1354 18.9794 12.0592C17.2198 11.1301 15.81 10.9156 14.7892 11.4124C14.4037 11.6018 14.086 11.8912 13.8291 12.2736C13.8719 11.9234 13.9183 11.5732 13.9683 11.2265C14.343 10.3439 14.9212 9.73993 15.6743 9.46477H15.6708ZM17.1127 31.5638C16.4167 31.7424 15.8385 31.7103 15.3674 31.4673C14.6036 31.0742 14.0825 30.095 13.8183 28.562C13.2865 25.478 13.1188 20.55 13.5043 15.4755C13.7006 14.7823 14.0147 14.2927 14.4608 14.0068C15.1818 13.5422 16.2883 13.578 17.7481 14.1176C20.682 15.2004 25.0293 17.516 29.2267 20.3892C29.73 20.9038 29.9941 21.422 30.0191 21.9508C30.0619 22.8085 29.4766 23.7484 28.2773 24.7454C25.8752 26.7466 21.6956 29.3589 17.1127 31.5602V31.5638ZM17.8551 13.8281C16.2775 13.2456 15.1104 13.2206 14.2931 13.7459C14.0111 13.9282 13.7791 14.1747 13.5863 14.4856C13.6256 14.0425 13.672 13.5994 13.722 13.1598C13.9861 12.4487 14.3859 11.9556 14.9248 11.6911C15.8492 11.2373 17.1663 11.4517 18.8331 12.3308C22.8128 14.4285 29.5265 18.8954 34.6305 23.9235C29.3266 19.3135 22.2132 15.4326 17.8551 13.8245V13.8281ZM13.5114 28.6156C13.7969 30.2737 14.3573 31.2993 15.2246 31.746C15.5209 31.8997 15.8528 31.9783 16.2169 31.989C15.8064 32.1784 15.3852 32.3571 14.9712 32.5394C14.2395 32.6573 13.622 32.5572 13.1331 32.2284C12.2764 31.6531 11.8053 30.4059 11.7339 28.5191C11.559 24.0199 12.0659 15.9651 13.8647 9.02522C12.5299 15.9294 12.7262 24.0378 13.515 28.6191L13.5114 28.6156ZM11.4234 28.5298C11.5019 30.5203 12.0195 31.8497 12.9582 32.4857C13.3115 32.7252 13.722 32.8574 14.1824 32.8896C13.854 33.0289 13.5257 33.1612 13.1973 33.2934C12.2515 33.4077 11.4412 33.2076 10.8309 32.6966C9.89219 31.9068 9.46745 30.4059 9.64235 28.4726C10.0135 24.363 11.2235 16.3296 13.49 9.22177C11.7411 16.1366 11.2449 24.07 11.4198 28.5298H11.4234ZM9.33896 28.444C9.15693 30.481 9.61736 32.0748 10.6346 32.9324C11.1164 33.3363 11.7018 33.5614 12.3692 33.6186C11.9873 33.7651 11.609 33.908 11.2271 34.0438C10.0992 34.1332 9.12124 33.8187 8.43595 33.1218C7.44727 32.1177 7.12604 30.4059 7.55435 28.4262C8.00764 26.3356 10.0064 17.4874 13.1438 9.31468C10.9059 16.4047 9.70659 24.3594 9.33896 28.4476V28.444ZM0.904872 33.783C-0.00528154 32.3142 0.137487 30.2523 1.28321 28.2654C3.07496 25.1563 5.43779 21.0753 7.92911 16.7727C9.20333 14.5714 10.5132 12.3093 11.7982 10.0901C8.65724 16.2617 5.49847 22.9622 3.09638 28.1903C2.11841 30.3166 2.15053 32.45 3.18204 33.8973C3.83164 34.8086 4.80247 35.3696 5.99102 35.5412C5.71976 35.5948 5.45207 35.6484 5.18438 35.6912C3.27841 35.7877 1.72223 35.098 0.908441 33.783H0.904872ZM6.14807 35.509C6.50142 35.434 6.85478 35.3553 7.21527 35.266C5.56985 35.3803 4.23139 34.8407 3.42832 33.7186C2.46462 32.3642 2.44321 30.3452 3.37478 28.3225C5.82684 22.9872 9.06413 16.1116 12.2729 9.83642C9.09982 17.0122 6.40505 24.6525 5.17724 28.2725C4.45269 30.4059 4.65613 32.3714 5.73047 33.665C6.35508 34.4191 7.22955 34.8657 8.25392 34.9944C7.5365 35.1945 6.83693 35.3661 6.14807 35.509ZM5.96604 33.4685C4.95952 32.257 4.77749 30.4024 5.46635 28.3726C6.70844 24.7096 9.45318 16.93 12.6726 9.69348C9.63521 17.7483 7.70068 26.3035 7.2581 28.3583C6.80838 30.4417 7.15816 32.257 8.22179 33.3363C8.78573 33.9116 9.52813 34.2475 10.3776 34.3404C9.98499 34.4727 9.59595 34.5977 9.2069 34.7192C7.85773 34.805 6.71558 34.3726 5.96604 33.4685ZM28.4772 24.9884C29.7692 23.9127 30.376 22.9121 30.3296 21.9401C30.3118 21.6042 30.2154 21.279 30.0441 20.9574C30.4081 21.2147 30.7686 21.4756 31.1255 21.7364C31.6074 22.3189 31.8358 22.9121 31.793 23.5089C31.7216 24.5381 30.8793 25.5709 29.2838 26.5786C25.479 28.9801 18.2585 32.5679 11.3556 34.4798C17.9943 32.1856 24.9079 27.9616 28.4772 24.9848V24.9884ZM29.4444 26.8431C31.1255 25.7817 32.0178 24.6668 32.0964 23.5339C32.1249 23.1087 32.0321 22.687 31.8322 22.2725C32.1142 22.4869 32.3926 22.7013 32.6674 22.9157C33.2421 23.6805 33.4777 24.4845 33.3385 25.2743C33.1243 26.4857 32.0393 27.6007 30.2796 28.4154C26.5391 30.1486 18.9866 33.1147 11.7054 34.7014C18.5618 32.7609 25.6718 29.2231 29.4409 26.8431H29.4444ZM30.4117 28.6942C32.2641 27.8365 33.4134 26.6394 33.6454 25.3279C33.7561 24.7061 33.6561 24.0843 33.3706 23.4732C33.6847 23.7305 33.9988 23.9878 34.3022 24.2451C34.9482 25.1814 35.1659 26.1891 34.9054 27.1361C34.5306 28.4941 33.21 29.6305 31.2862 30.2487C29.2517 30.9027 20.5963 33.59 11.9588 34.9587C19.2114 33.3541 26.6926 30.4166 30.4117 28.6942ZM31.379 30.5453C33.4063 29.8949 34.8018 28.6835 35.2016 27.2219C35.4158 26.4464 35.3372 25.6316 34.991 24.849C35.3015 25.1242 35.6049 25.3993 35.9012 25.6745C36.6507 26.8038 36.847 28.0081 36.4401 29.1087C35.8976 30.5846 34.3807 31.671 32.282 32.0891C28.4914 32.8431 20.3929 34.3547 12.5227 35.1802C21.0103 33.783 29.3766 31.185 31.3754 30.5417L31.379 30.5453ZM32.3462 32.3928C34.552 31.9533 36.151 30.7954 36.7328 29.2159C37.0719 28.2975 37.0219 27.3148 36.6221 26.3606C36.8827 26.6144 37.1325 26.8681 37.3753 27.1254C38.2961 28.4941 38.4996 29.9271 37.9285 31.1814C37.2396 32.6966 35.505 33.7222 33.2885 33.9295C27.4457 34.4727 19.8825 35.1016 12.8511 35.459C20.6427 34.6227 28.5985 33.1397 32.3462 32.3928ZM39.2455 33.3398C38.4318 34.8622 36.5758 35.7699 34.2843 35.7699C30.7008 35.7699 25.9894 35.7627 21.021 35.7556C18.4762 35.752 15.8671 35.7484 13.3079 35.7449C20.218 35.3839 27.592 34.7693 33.3135 34.2404C35.6442 34.0224 37.4716 32.9289 38.2069 31.3136C38.6709 30.2916 38.6673 29.1623 38.2176 28.0474C38.3996 28.2546 38.5745 28.4583 38.7458 28.6656C39.7916 30.2773 39.9737 31.9783 39.242 33.3434L39.2455 33.3398Z" fill="#15696D"/>
</g>
<defs>
<clipPath id="clip0_979_63067">
<rect width="40" height="36" fill="white"/>
</clipPath>
</defs>
</svg>
